<mxfile host="app.diagrams.net" modified="2022-09-07T09:10:51.607Z" agent="5.0 (Macintosh; Intel Mac OS X 10_15_7) AppleWebKit/605.1.15 (KHTML, like Gecko) Version/15.6 Safari/605.1.15" etag="IiImotgzb-F8-WaADue6" version="20.2.8" type="github">
  <diagram id="AN-StCZbgenjLK352rBk" name="第 1 页">
    <mxGraphModel dx="2466" dy="1440" grid="1" gridSize="10" guides="1" tooltips="1" connect="1" arrows="1" fold="1" page="1" pageScale="1" pageWidth="1920" pageHeight="1200" math="0" shadow="0">
      <root>
        <mxCell id="0" />
        <mxCell id="1" parent="0" />
        <mxCell id="WeSRy52PTeBeFJiV08kK-11" style="rounded=0;jumpSize=6;orthogonalLoop=1;jettySize=auto;html=1;exitX=0.5;exitY=1;exitDx=0;exitDy=0;entryX=0.5;entryY=0;entryDx=0;entryDy=0;strokeColor=default;strokeWidth=4;fontSize=24;endArrow=block;endFill=1;startSize=4;endSize=14;targetPerimeterSpacing=4;elbow=vertical;edgeStyle=orthogonalEdgeStyle;" edge="1" parent="1" source="WeSRy52PTeBeFJiV08kK-1" target="WeSRy52PTeBeFJiV08kK-4">
          <mxGeometry relative="1" as="geometry" />
        </mxCell>
        <mxCell id="WeSRy52PTeBeFJiV08kK-1" value="&lt;font size=&quot;5&quot;&gt;&lt;b&gt;RGB&lt;/b&gt;&lt;/font&gt;" style="rounded=0;whiteSpace=wrap;html=1;fillColor=#ffe6cc;strokeColor=#d79b00;" vertex="1" parent="1">
          <mxGeometry x="80" y="40" width="240" height="120" as="geometry" />
        </mxCell>
        <mxCell id="WeSRy52PTeBeFJiV08kK-13" style="edgeStyle=orthogonalEdgeStyle;rounded=0;jumpSize=6;orthogonalLoop=1;jettySize=auto;html=1;exitX=0.5;exitY=1;exitDx=0;exitDy=0;entryX=0.5;entryY=0;entryDx=0;entryDy=0;strokeColor=default;strokeWidth=4;fontSize=24;endArrow=block;endFill=1;startSize=4;endSize=14;targetPerimeterSpacing=4;elbow=vertical;" edge="1" parent="1" source="WeSRy52PTeBeFJiV08kK-2" target="WeSRy52PTeBeFJiV08kK-12">
          <mxGeometry relative="1" as="geometry" />
        </mxCell>
        <mxCell id="WeSRy52PTeBeFJiV08kK-29" style="edgeStyle=orthogonalEdgeStyle;rounded=0;jumpSize=6;orthogonalLoop=1;jettySize=auto;html=1;exitX=1;exitY=0.5;exitDx=0;exitDy=0;strokeColor=default;strokeWidth=4;fontSize=32;endArrow=block;endFill=1;startSize=4;endSize=14;targetPerimeterSpacing=4;elbow=vertical;" edge="1" parent="1" source="WeSRy52PTeBeFJiV08kK-2" target="WeSRy52PTeBeFJiV08kK-15">
          <mxGeometry relative="1" as="geometry" />
        </mxCell>
        <mxCell id="WeSRy52PTeBeFJiV08kK-2" value="&lt;font size=&quot;5&quot;&gt;&lt;b&gt;Depth Prediction&lt;/b&gt;&lt;/font&gt;" style="rounded=0;whiteSpace=wrap;html=1;fillColor=#dae8fc;strokeColor=#6c8ebf;" vertex="1" parent="1">
          <mxGeometry x="800" y="40" width="320" height="120" as="geometry" />
        </mxCell>
        <mxCell id="WeSRy52PTeBeFJiV08kK-3" value="" style="endArrow=block;html=1;rounded=0;fontSize=24;entryX=0;entryY=0.5;entryDx=0;entryDy=0;exitX=1;exitY=0.5;exitDx=0;exitDy=0;strokeWidth=4;strokeColor=default;endFill=1;endSize=14;jumpSize=6;targetPerimeterSpacing=4;startSize=4;" edge="1" parent="1" source="WeSRy52PTeBeFJiV08kK-1" target="WeSRy52PTeBeFJiV08kK-2">
          <mxGeometry width="50" height="50" relative="1" as="geometry">
            <mxPoint x="360" y="100" as="sourcePoint" />
            <mxPoint x="960" y="560" as="targetPoint" />
          </mxGeometry>
        </mxCell>
        <mxCell id="WeSRy52PTeBeFJiV08kK-19" style="edgeStyle=orthogonalEdgeStyle;rounded=0;jumpSize=6;orthogonalLoop=1;jettySize=auto;html=1;strokeColor=default;strokeWidth=4;fontSize=24;endArrow=block;endFill=1;startSize=4;endSize=14;targetPerimeterSpacing=4;elbow=vertical;" edge="1" parent="1" source="WeSRy52PTeBeFJiV08kK-4" target="WeSRy52PTeBeFJiV08kK-16">
          <mxGeometry relative="1" as="geometry" />
        </mxCell>
        <mxCell id="WeSRy52PTeBeFJiV08kK-4" value="" style="rounded=0;whiteSpace=wrap;html=1;fillColor=#f5f5f5;strokeColor=#666666;fontColor=#333333;" vertex="1" parent="1">
          <mxGeometry x="80" y="275" width="640" height="365" as="geometry" />
        </mxCell>
        <mxCell id="WeSRy52PTeBeFJiV08kK-5" value="&lt;b&gt;&lt;font style=&quot;font-size: 32px;&quot;&gt;Backbone&lt;/font&gt;&lt;/b&gt;" style="text;html=1;align=left;verticalAlign=top;resizable=0;points=[];autosize=1;strokeColor=none;fillColor=none;fontSize=24;" vertex="1" parent="1">
          <mxGeometry x="90" y="290" width="180" height="50" as="geometry" />
        </mxCell>
        <mxCell id="WeSRy52PTeBeFJiV08kK-18" style="edgeStyle=orthogonalEdgeStyle;rounded=0;jumpSize=6;orthogonalLoop=1;jettySize=auto;html=1;exitX=0;exitY=0.5;exitDx=0;exitDy=0;entryX=0.75;entryY=0;entryDx=0;entryDy=0;strokeColor=default;strokeWidth=4;fontSize=24;endArrow=block;endFill=1;startSize=4;endSize=14;targetPerimeterSpacing=4;elbow=vertical;" edge="1" parent="1" source="WeSRy52PTeBeFJiV08kK-12" target="WeSRy52PTeBeFJiV08kK-4">
          <mxGeometry relative="1" as="geometry" />
        </mxCell>
        <mxCell id="WeSRy52PTeBeFJiV08kK-20" style="edgeStyle=orthogonalEdgeStyle;rounded=0;jumpSize=6;orthogonalLoop=1;jettySize=auto;html=1;exitX=0.5;exitY=1;exitDx=0;exitDy=0;entryX=0.5;entryY=0;entryDx=0;entryDy=0;strokeColor=default;strokeWidth=4;fontSize=24;endArrow=block;endFill=1;startSize=4;endSize=14;targetPerimeterSpacing=4;elbow=vertical;" edge="1" parent="1" source="WeSRy52PTeBeFJiV08kK-12" target="WeSRy52PTeBeFJiV08kK-16">
          <mxGeometry relative="1" as="geometry" />
        </mxCell>
        <mxCell id="WeSRy52PTeBeFJiV08kK-12" value="&lt;font size=&quot;5&quot;&gt;&lt;b&gt;Depth Normalization&lt;/b&gt;&lt;/font&gt;" style="rounded=0;whiteSpace=wrap;html=1;fillColor=#d5e8d4;strokeColor=#82b366;" vertex="1" parent="1">
          <mxGeometry x="800" y="200" width="320" height="80" as="geometry" />
        </mxCell>
        <mxCell id="WeSRy52PTeBeFJiV08kK-25" value="" style="edgeStyle=orthogonalEdgeStyle;rounded=0;jumpSize=6;orthogonalLoop=1;jettySize=auto;html=1;strokeColor=default;strokeWidth=4;fontSize=32;endArrow=block;endFill=1;startSize=4;endSize=14;targetPerimeterSpacing=4;elbow=vertical;" edge="1" parent="1" source="WeSRy52PTeBeFJiV08kK-15" target="WeSRy52PTeBeFJiV08kK-24">
          <mxGeometry relative="1" as="geometry" />
        </mxCell>
        <mxCell id="WeSRy52PTeBeFJiV08kK-15" value="" style="rounded=0;whiteSpace=wrap;html=1;fontSize=24;fillColor=#dae8fc;strokeColor=#6c8ebf;" vertex="1" parent="1">
          <mxGeometry x="1240" y="40" width="640" height="320" as="geometry" />
        </mxCell>
        <mxCell id="WeSRy52PTeBeFJiV08kK-28" style="edgeStyle=orthogonalEdgeStyle;rounded=0;jumpSize=6;orthogonalLoop=1;jettySize=auto;html=1;exitX=1;exitY=0.5;exitDx=0;exitDy=0;entryX=0;entryY=0.75;entryDx=0;entryDy=0;strokeColor=default;strokeWidth=4;fontSize=32;endArrow=block;endFill=1;startSize=4;endSize=14;targetPerimeterSpacing=4;elbow=vertical;" edge="1" parent="1" source="WeSRy52PTeBeFJiV08kK-16" target="WeSRy52PTeBeFJiV08kK-15">
          <mxGeometry relative="1" as="geometry" />
        </mxCell>
        <mxCell id="WeSRy52PTeBeFJiV08kK-44" style="edgeStyle=orthogonalEdgeStyle;rounded=0;jumpSize=6;orthogonalLoop=1;jettySize=auto;html=1;entryX=0.25;entryY=0;entryDx=0;entryDy=0;strokeColor=default;strokeWidth=4;fontSize=24;endArrow=block;endFill=1;startSize=4;endSize=14;targetPerimeterSpacing=4;elbow=vertical;" edge="1" parent="1" source="WeSRy52PTeBeFJiV08kK-16" target="WeSRy52PTeBeFJiV08kK-33">
          <mxGeometry relative="1" as="geometry" />
        </mxCell>
        <mxCell id="WeSRy52PTeBeFJiV08kK-16" value="" style="rounded=0;whiteSpace=wrap;html=1;fontSize=24;fillColor=#f8cecc;strokeColor=#b85450;" vertex="1" parent="1">
          <mxGeometry x="840" y="360" width="240" height="280" as="geometry" />
        </mxCell>
        <mxCell id="WeSRy52PTeBeFJiV08kK-41" style="edgeStyle=orthogonalEdgeStyle;rounded=0;jumpSize=6;orthogonalLoop=1;jettySize=auto;html=1;exitX=0;exitY=0.5;exitDx=0;exitDy=0;entryX=1;entryY=0.5;entryDx=0;entryDy=0;strokeColor=default;strokeWidth=4;fontSize=24;endArrow=block;endFill=1;startSize=4;endSize=14;targetPerimeterSpacing=4;elbow=vertical;" edge="1" parent="1" source="WeSRy52PTeBeFJiV08kK-24" target="WeSRy52PTeBeFJiV08kK-33">
          <mxGeometry relative="1" as="geometry" />
        </mxCell>
        <mxCell id="WeSRy52PTeBeFJiV08kK-24" value="" style="whiteSpace=wrap;html=1;fontSize=24;fillColor=#e1d5e7;strokeColor=#9673a6;rounded=0;" vertex="1" parent="1">
          <mxGeometry x="1240" y="480" width="640" height="680" as="geometry" />
        </mxCell>
        <mxCell id="WeSRy52PTeBeFJiV08kK-30" value="&lt;b&gt;&lt;font style=&quot;font-size: 32px;&quot;&gt;Occlusion Edge&lt;/font&gt;&lt;/b&gt;" style="text;html=1;align=left;verticalAlign=top;resizable=0;points=[];autosize=1;strokeColor=none;fillColor=none;fontSize=24;" vertex="1" parent="1">
          <mxGeometry x="1250" y="50" width="270" height="50" as="geometry" />
        </mxCell>
        <mxCell id="WeSRy52PTeBeFJiV08kK-31" value="&lt;b&gt;&lt;font style=&quot;font-size: 32px;&quot;&gt;Amodal Proposal Network&lt;/font&gt;&lt;/b&gt;" style="text;html=1;align=left;verticalAlign=top;resizable=0;points=[];autosize=1;strokeColor=none;fillColor=none;fontSize=24;" vertex="1" parent="1">
          <mxGeometry x="1260" y="500" width="420" height="50" as="geometry" />
        </mxCell>
        <mxCell id="WeSRy52PTeBeFJiV08kK-32" value="&lt;b style=&quot;font-size: 18px;&quot;&gt;&lt;font style=&quot;font-size: 18px;&quot;&gt;Visible Mask Head&lt;/font&gt;&lt;/b&gt;" style="text;html=1;align=left;verticalAlign=top;resizable=0;points=[];autosize=1;strokeColor=none;fillColor=none;fontSize=18;" vertex="1" parent="1">
          <mxGeometry x="850" y="370" width="180" height="30" as="geometry" />
        </mxCell>
        <mxCell id="WeSRy52PTeBeFJiV08kK-50" style="edgeStyle=orthogonalEdgeStyle;rounded=0;jumpSize=6;orthogonalLoop=1;jettySize=auto;html=1;entryX=1;entryY=0.5;entryDx=0;entryDy=0;strokeColor=default;strokeWidth=4;fontSize=24;endArrow=block;endFill=1;startSize=4;endSize=14;targetPerimeterSpacing=4;elbow=vertical;" edge="1" parent="1" source="WeSRy52PTeBeFJiV08kK-33" target="WeSRy52PTeBeFJiV08kK-45">
          <mxGeometry relative="1" as="geometry" />
        </mxCell>
        <mxCell id="WeSRy52PTeBeFJiV08kK-33" value="" style="rounded=0;whiteSpace=wrap;html=1;fontSize=18;fillColor=#f8cecc;strokeColor=#b85450;" vertex="1" parent="1">
          <mxGeometry x="840" y="760" width="320" height="380" as="geometry" />
        </mxCell>
        <mxCell id="WeSRy52PTeBeFJiV08kK-34" value="&lt;b style=&quot;font-size: 24px;&quot;&gt;&lt;font style=&quot;font-size: 24px;&quot;&gt;Amodal Coarse Mask&lt;/font&gt;&lt;/b&gt;" style="text;html=1;align=left;verticalAlign=top;resizable=0;points=[];autosize=1;strokeColor=none;fillColor=none;fontSize=24;" vertex="1" parent="1">
          <mxGeometry x="850" y="770" width="270" height="40" as="geometry" />
        </mxCell>
        <mxCell id="WeSRy52PTeBeFJiV08kK-42" value="Visible Mask&lt;br&gt;Depth Information" style="text;html=1;align=left;verticalAlign=middle;resizable=0;points=[];autosize=1;strokeColor=none;fillColor=none;fontSize=24;" vertex="1" parent="1">
          <mxGeometry x="980" y="670" width="210" height="70" as="geometry" />
        </mxCell>
        <mxCell id="WeSRy52PTeBeFJiV08kK-56" style="edgeStyle=orthogonalEdgeStyle;rounded=0;jumpSize=6;orthogonalLoop=1;jettySize=auto;html=1;entryX=0.5;entryY=0;entryDx=0;entryDy=0;strokeColor=default;strokeWidth=4;fontSize=32;endArrow=block;endFill=1;startSize=4;endSize=14;targetPerimeterSpacing=4;elbow=vertical;" edge="1" parent="1" source="WeSRy52PTeBeFJiV08kK-45" target="WeSRy52PTeBeFJiV08kK-54">
          <mxGeometry relative="1" as="geometry" />
        </mxCell>
        <mxCell id="WeSRy52PTeBeFJiV08kK-45" value="" style="rounded=0;whiteSpace=wrap;html=1;fontSize=24;fillColor=#d5e8d4;strokeColor=#82b366;" vertex="1" parent="1">
          <mxGeometry x="80" y="760" width="680" height="160" as="geometry" />
        </mxCell>
        <mxCell id="WeSRy52PTeBeFJiV08kK-48" value="" style="rounded=0;whiteSpace=wrap;html=1;fontSize=24;fillColor=#dae8fc;strokeColor=#6c8ebf;" vertex="1" parent="1">
          <mxGeometry x="140" y="670" width="210" height="160" as="geometry" />
        </mxCell>
        <mxCell id="WeSRy52PTeBeFJiV08kK-49" value="" style="rounded=0;whiteSpace=wrap;html=1;fontSize=24;fillColor=#dae8fc;strokeColor=#6c8ebf;" vertex="1" parent="1">
          <mxGeometry x="480" y="670" width="210" height="160" as="geometry" />
        </mxCell>
        <mxCell id="WeSRy52PTeBeFJiV08kK-52" value="&lt;font size=&quot;6&quot;&gt;3D Feature Matching&amp;nbsp;Refinement&lt;/font&gt;" style="text;html=1;strokeColor=none;fillColor=none;align=center;verticalAlign=middle;whiteSpace=wrap;rounded=0;fontSize=24;fontStyle=1" vertex="1" parent="1">
          <mxGeometry x="90" y="840" width="650" height="70" as="geometry" />
        </mxCell>
        <mxCell id="WeSRy52PTeBeFJiV08kK-54" value="&lt;b&gt;Amodal Mask&lt;/b&gt;" style="whiteSpace=wrap;html=1;fontSize=32;" vertex="1" parent="1">
          <mxGeometry x="80" y="990" width="280" height="150" as="geometry" />
        </mxCell>
      </root>
    </mxGraphModel>
  </diagram>
</mxfile>
